<?xml version="1.0" standalone="no"?>
<!DOCTYPE svg PUBLIC "-//W3C//DTD SVG 20010904//EN"
 "http://www.w3.org/TR/2001/REC-SVG-20010904/DTD/svg10.dtd">
<svg version="1.0" xmlns="http://www.w3.org/2000/svg"
 width="32.000000pt" height="32.000000pt" viewBox="0 0 32.000000 32.000000"
 preserveAspectRatio="xMidYMid meet">

<g transform="translate(0.000000,32.000000) scale(0.100000,-0.100000)"
fill="#000000" stroke="none">
<path d="M60 251 c0 -5 5 -11 12 -13 7 -3 11 -23 10 -51 -1 -28 2 -47 9 -47 5
0 7 -5 4 -11 -4 -6 2 -13 13 -16 11 -3 23 -11 26 -19 18 -46 96 24 96 86 0 21
7 45 15 54 8 8 15 17 15 20 0 6 -56 0 -69 -8 -5 -4 -12 -2 -16 3 -3 6 -15 7
-29 1 -15 -5 -27 -5 -35 3 -8 8 -11 7 -11 -3 0 -11 -3 -11 -12 -2 -14 14 -28
16 -28 3z m141 -52 c9 -19 8 -20 -9 -14 -17 5 -21 1 -24 -22 -3 -28 -28 -39
-35 -15 -3 6 2 12 11 12 11 0 16 9 16 30 0 36 24 41 41 9z"/>
</g>
</svg>
